<svg xmlns="http://www.w3.org/2000/svg" width="708.802" height="692.2" viewBox="0 0 708.802 692.2"><defs><style>.a{fill:#fece2f;}.b{fill:#fff;}.c{fill:#4d4d4d;}.d{fill:#333;}.e{fill:#ccc;}.f{fill:#666;}.g{fill:none;}.h{fill:gray;}.i{fill:#999;}.j{fill:#1a1a1a;}.k{fill:#e6e6e6;}.l{fill:#fed85b;}</style></defs><g transform="translate(-44.3 -40.8)"><circle class="a" cx="316" cy="316" r="316" transform="translate(87.6 101)"/><circle class="b" cx="81.2" cy="81.2" r="81.2" transform="translate(384.1 40.8)"/><circle class="b" cx="129.5" cy="129.5" r="129.5" transform="translate(44.3 76.1)"/><rect class="c" width="52.7" height="52.7" transform="translate(159.7 135.4)"/><rect class="d" width="52.7" height="52.7" transform="translate(106.7 135.4)"/><rect class="e" width="52.7" height="52.7" transform="translate(53.7 240.5)"/><rect class="f" width="52.7" height="52.7" transform="translate(212.7 135.4)"/><path class="a" d="M265.4,135.5H53.7V115.8a8.28,8.28,0,0,1,8.3-8.3H257.1a8.28,8.28,0,0,1,8.3,8.3v19.7Z"/><rect class="g" width="52.7" height="52.7" transform="translate(106.7 135.4)"/><rect class="h" width="52.7" height="52.7" transform="translate(53.7 187.9)"/><rect class="i" width="52.7" height="52.7" transform="translate(106.7 187.9)"/><path class="j" d="M266.3,115.8a9.282,9.282,0,0,0-9.3-9.3H62a9.282,9.282,0,0,0-9.3,9.3V293.1a1,1,0,0,0,1,1h52.7a1,1,0,0,0,1-1V241.5h52a1,1,0,0,0,1-1V189H265.3a1,1,0,0,0,1-1V115.8ZM62,108.4H257.1a7.341,7.341,0,0,1,7.3,7.3v18.6H159.7a.6.6,0,0,0-.4.1H106.9a.6.6,0,0,0-.4-.1H54.7V115.7A7.341,7.341,0,0,1,62,108.4Zm43.5,183.8H54.7V241.6h50.8Zm0-52.7H54.7V189h50.8Zm52.9.2H107.6V188.9h50.8Zm-51-52.8V136.4h51.3v50.5Zm53.3.2V136.5h50.8v50.7l-50.8-.1Zm52.9,0V136.5h50.8v50.7l-50.8-.1Z"/><path class="j" d="M62.6,128.4a1.136,1.136,0,0,1-.8-.3,1.217,1.217,0,0,1,0-1.6l11.9-11.9a1.131,1.131,0,0,1,1.6,1.6L63.4,128.1A1.135,1.135,0,0,1,62.6,128.4Z"/><path class="j" d="M74.5,128.4a1.136,1.136,0,0,1-.8-.3L61.8,116.2a1.131,1.131,0,1,1,1.6-1.6l11.9,11.9a1.217,1.217,0,0,1,0,1.6A1.135,1.135,0,0,1,74.5,128.4Z"/><path class="j" d="M248.8,127.5l-7.5-5.7,7.5-5.7Z"/><path class="j" d="M256.7,127.5l-7.5-5.7,7.5-5.7Z"/><path class="k" d="M743.7,680.9H662.8a8.28,8.28,0,0,1-8.3-8.3V234.5a8.28,8.28,0,0,1,8.3-8.3h80.9a8.28,8.28,0,0,1,8.3,8.3V672.7A8.259,8.259,0,0,1,743.7,680.9Z"/><path class="b" d="M654.6,585.4v87.2a8.28,8.28,0,0,0,8.3,8.3h80.9a8.28,8.28,0,0,0,8.3-8.3V585.4Z"/><path class="a" d="M752,248V234.5a8.28,8.28,0,0,0-8.3-8.3H662.8a8.28,8.28,0,0,0-8.3,8.3V248Z"/><path class="j" d="M743.7,682H662.8a9.389,9.389,0,0,1-9.4-9.4V234.5a9.389,9.389,0,0,1,9.4-9.4h80.9a9.389,9.389,0,0,1,9.4,9.4V672.7A9.3,9.3,0,0,1,743.7,682ZM662.9,227.3a7.17,7.17,0,0,0-7.2,7.2V672.7a7.17,7.17,0,0,0,7.2,7.2h80.9a7.17,7.17,0,0,0,7.2-7.2V234.5a7.17,7.17,0,0,0-7.2-7.2Z"/><path class="j" d="M733.6,243.4l-7.5-5.7,7.5-5.7Z"/><path class="j" d="M741.5,243.4l-7.5-5.7,7.5-5.7Z"/><path class="j" d="M725.1,631.6v23.9H701.2V631.6h23.9m8.2-8.2H693v40.3h40.3V623.4Z"/><path class="k" d="M733.3,664.8H693a1.11,1.11,0,0,1-1.1-1.1V623.4a1.11,1.11,0,0,1,1.1-1.1h40.3a1.11,1.11,0,0,1,1.1,1.1v40.3A1,1,0,0,1,733.3,664.8Zm-39.2-2.2h38.1V624.5H694.1Zm31-6H701.2a1.11,1.11,0,0,1-1.1-1.1V631.6a1.11,1.11,0,0,1,1.1-1.1h23.9a1.11,1.11,0,0,1,1.1,1.1v23.9A1.049,1.049,0,0,1,725.1,656.6Zm-22.8-2.3H724V632.6H702.3Z"/><rect class="j" width="40.3" height="40.3" transform="translate(673.7 604)"/><path class="j" d="M737.1,612.4a1.045,1.045,0,0,0-1.5-.4l-1.3.7a11.163,11.163,0,0,0-10-9.7l.7-1.3a1.1,1.1,0,1,0-1.9-1.1l-1.6,2.9h0c0,.1,0,.1-.1.2v.3h0v.4c0,.1,0,.1.1.2h0l1.5,2.8a1.1,1.1,0,0,0,1,.6.749.749,0,0,0,.5-.1,1.045,1.045,0,0,0,.4-1.5l-.6-1a9.026,9.026,0,0,1,7.7,7.3l-1-.6a1.1,1.1,0,1,0-1.1,1.9l2.9,1.6a1.269,1.269,0,0,0,.6.1.75.75,0,0,0,.5-.1l2.8-1.5A1.3,1.3,0,0,0,737.1,612.4Z"/><rect class="a" width="82.3" height="314.8" transform="translate(662.4 257.7)"/><path class="j" d="M744.7,256.6H662.4a1.11,1.11,0,0,0-1.1,1.1V572.5a1.11,1.11,0,0,0,1.1,1.1h82.3a1.11,1.11,0,0,0,1.1-1.1V257.7A1.049,1.049,0,0,0,744.7,256.6ZM663.5,416.2h80.1v76.2H663.5Zm0-157.4h80.1v76.7H663.5Zm80.1,79V414H663.5V337.8ZM663.5,571.4V494.5h80.1v76.9Z"/><path class="j" d="M669.7,238l5.2-5.2a1.131,1.131,0,0,0-1.6-1.6l-5.2,5.2-5.2-5.2a1.131,1.131,0,0,0-1.6,1.6l5.2,5.2-5.2,5.2a1.217,1.217,0,0,0,0,1.6,1.217,1.217,0,0,0,1.6,0l5.2-5.2,5.2,5.2a1.217,1.217,0,0,0,1.6,0,1.217,1.217,0,0,0,0-1.6Z"/><path class="j" d="M743.7,681.9H662.8a9.282,9.282,0,0,1-9.3-9.3V234.5a9.282,9.282,0,0,1,9.3-9.3h80.9a9.282,9.282,0,0,1,9.3,9.3V672.7A9.261,9.261,0,0,1,743.7,681.9ZM662.9,227.2a7.341,7.341,0,0,0-7.3,7.3V672.7a7.341,7.341,0,0,0,7.3,7.3h80.9a7.341,7.341,0,0,0,7.3-7.3V234.5a7.341,7.341,0,0,0-7.3-7.3Z"/><circle class="b" cx="8.1" cy="8.1" r="8.1" transform="translate(695.7 268)"/><rect class="b" width="22.7" height="21.4" transform="translate(692.5 289.5)"/><rect class="b" width="6.3" height="12.2" transform="translate(692.6 314.9)"/><rect class="b" width="6.3" height="12.2" transform="translate(708.8 314.9)"/><rect class="b" width="23.2" height="6.1" transform="translate(674.836 311.74) rotate(-65.544)"/><rect class="b" width="6.1" height="23.2" transform="translate(717.611 293.199) rotate(-24.456)"/><rect class="b" width="30.1" height="21.4" transform="translate(688.9 443)"/><path class="b" d="M688.9,476.3V464.1h6.4Z"/><path class="b" d="M719,476.3l-6.3-12.2H719Z"/><path class="b" d="M671,465.2l9.7-21.1,5.5,2.5Z"/><path class="b" d="M736.5,465.2l-9.6-21.1-5.6,2.5Z"/><circle class="b" cx="4.9" cy="4.9" r="4.9" transform="translate(699.1 427.5)"/><circle class="b" cx="3.6" cy="3.6" r="3.6" transform="translate(700 346.7)"/><rect class="b" width="22.7" height="27.9" transform="translate(692.3 357.2)"/><rect class="b" width="6.3" height="17.4" transform="translate(692.4 389.1)"/><rect class="b" width="6.3" height="17.4" transform="translate(708.6 389.1)"/><rect class="b" width="23.2" height="3.8" transform="translate(676.729 380.678) rotate(-65.544)"/><rect class="b" width="3.8" height="23.2" transform="translate(717.806 361.209) rotate(-24.456)"/><circle class="b" cx="3.9" cy="3.9" r="3.9" transform="translate(699.7 508.2)"/><path class="b" d="M703.7,519.5l-12.2,29.8h24.1Z"/><rect class="b" width="4" height="9.7" transform="translate(691.7 553.5)"/><rect class="b" width="4" height="9.7" transform="translate(711.8 553.5)"/><rect class="b" width="24.7" height="4.1" transform="translate(682.956 544.618) rotate(-65.544)"/><rect class="b" width="4.1" height="24.7" transform="translate(710.758 523.642) rotate(-24.456)"/><circle class="a" cx="45.9" cy="45.9" r="45.9" transform="translate(65.6 424.2)"/><path class="b" d="M73.5,484a25.282,25.282,0,0,0,2.8-.1c.5,0,.9-.1,1.4-.1l1.2-.1c1.5-.2,3-.4,4.4-.5s2.7-.2,4-.2H90a2.2,2.2,0,0,1,.8.1,17.291,17.291,0,0,1,3.1.7,26.922,26.922,0,0,1,3.2,1.3c.5.3,1.1.6,1.6.9a2.177,2.177,0,0,1,.8.5l.9.6c2.5,1.6,4.9,3.2,7.2,4.9,2.4,1.7,4.7,3.5,7,5.3,1.2.9,2.3,1.8,3.4,2.8,1.1.9,2.2,1.9,3.3,2.8a30.938,30.938,0,0,1,5.3,5.7,14.586,14.586,0,0,1,1.7,2.9,4.877,4.877,0,0,0,.3.7c0,.1.1.2.1.3a45.02,45.02,0,0,0,9.6-5.3,32.207,32.207,0,0,0-2.1-4.6,35.831,35.831,0,0,0-3.1-4.5,31.6,31.6,0,0,0-3.4-3.8c-1.2-1.2-2.2-2.3-3.4-3.4-1.1-1.1-2.3-2.2-3.5-3.2-2.4-2.1-4.8-4.2-7.3-6.2s-5-3.8-7.7-5.7l-1-.7c-.4-.2-.7-.5-1.1-.7a25.5,25.5,0,0,0-2.4-1.4,40.891,40.891,0,0,0-5.2-2.3,36.49,36.49,0,0,0-5.7-1.4,7.568,7.568,0,0,0-1.5-.1c-.5,0-1-.1-1.5-.1H86.7a41.166,41.166,0,0,0-5.1.3c-1.6.2-3.2.4-4.7.6l-1.1.1c-.3,0-.6.1-.9.1-.6,0-1.2.1-1.7.1a18.286,18.286,0,0,1-3.3-.2,13.791,13.791,0,0,1-2.9-.8,13.39,13.39,0,0,1-1.2-.6,2.185,2.185,0,0,0-.5-.3,46.944,46.944,0,0,0,1.9,14.9h.1A29.391,29.391,0,0,0,73.5,484Z"/><path class="b" d="M100,430.1a85.61,85.61,0,0,1,7.5,4.4c5.1,3.3,10.3,6.6,15.4,9.9,5.2,3.2,10.3,6.5,15.5,9.7a91.781,91.781,0,0,0,8.2,4.6,29.661,29.661,0,0,0,9.3,2.9c.3,0,.5.1.8.1-.3-1.3-.6-2.7-.9-4a30.427,30.427,0,0,1-6.9-3.1,68.691,68.691,0,0,1-7.3-5.1c-4.9-3.7-9.8-7.3-14.7-10.9l-14.7-10.8c-1.5-1.1-3.1-2.3-4.8-3.4a43.915,43.915,0,0,0-13.7,3.5A22.652,22.652,0,0,1,100,430.1Z"/><path class="b" d="M113.2,513.8c-1.5-2.5-2.9-5.3-4.7-8a54.141,54.141,0,0,0-5.9-7.5,47.15,47.15,0,0,0-7.2-6.2c-1.3-.9-2.6-1.8-4-2.6a17.136,17.136,0,0,0-4.6-1.9,8.223,8.223,0,0,0-2.7-.2,7.512,7.512,0,0,0-2.6.5,12.307,12.307,0,0,0-4.3,2.8,12.184,12.184,0,0,0-2.7,4.1c-.2.6-.4,1.1-.6,1.7a8.961,8.961,0,0,0,1.5,1.9,11.363,11.363,0,0,1,3.5-6.2,9.4,9.4,0,0,1,3.5-2,7.008,7.008,0,0,1,3.8,0,11.525,11.525,0,0,1,3.7,1.8c.6.4,1.2.9,1.8,1.3a5.5,5.5,0,0,1,.9.7,5.5,5.5,0,0,1,.9.7,45.426,45.426,0,0,1,6.1,6.3,43.222,43.222,0,0,1,4.7,7.3c1.2,2.3,2.2,4.8,3.3,7.4a56.075,56.075,0,0,0,7.1.1A9.506,9.506,0,0,1,113.2,513.8Z"/><path class="b" d="M68.6,457.2a9.149,9.149,0,0,1,1.7-.1,24.041,24.041,0,0,1,3.7.3c1.3.2,2.6.5,4,.8l2.1.6,2.1.6c2.8.9,5.6,1.8,8.3,2.9a105.872,105.872,0,0,1,15.9,7.7,103.463,103.463,0,0,1,27.2,23.1,66.21,66.21,0,0,0,6.2,7,14.622,14.622,0,0,0,1.9,1.6c.6.4,1.2.9,1.9,1.3.7-.7,1.3-1.4,2-2.1-.1-.1-.3-.1-.4-.2A13.52,13.52,0,0,1,142,498a65.384,65.384,0,0,1-5.5-7,126.12,126.12,0,0,0-26.4-26.2,119.279,119.279,0,0,0-16-10c-2.8-1.5-5.7-2.8-8.6-4-.7-.3-1.5-.6-2.2-.9s-1.5-.6-2.2-.9a33.678,33.678,0,0,0-4.8-1.5c-.9-.2-1.7-.4-2.6-.6-.4-.1-.9-.1-1.4-.2a43.311,43.311,0,0,0-4.7,10.9A2.321,2.321,0,0,1,68.6,457.2Z"/><path class="b" d="M76.3,442.9a19.345,19.345,0,0,0,4.4,4.2,32.35,32.35,0,0,0,4.7,2.8,36.723,36.723,0,0,0,4.7,2c.8.3,1.5.5,2.3.8l2.2.7c2.9,1,5.9,1.9,8.8,2.8s5.8,1.8,8.6,2.7,5.6,1.9,8.4,2.9c2.7,1,5.4,2.2,8,3.3,2.6,1.2,5.2,2.4,7.7,3.7a66.644,66.644,0,0,1,14.1,9.4c1,1,2.1,2,3,3.1a25.6,25.6,0,0,1,2,2.6,51.713,51.713,0,0,0,1.6-6.8c-.6-1-1.2-1.9-1.8-2.9a52.505,52.505,0,0,0-13.7-14.1,71.5,71.5,0,0,0-8.4-5c-1.5-.7-2.9-1.4-4.4-2-.7-.3-1.5-.6-2.2-.9s-1.5-.6-2.2-.9c-3-1.1-5.9-2.1-8.9-3-2.9-.9-5.9-1.8-8.8-2.7s-5.8-1.7-8.7-2.5l-2.1-.7a12.93,12.93,0,0,1-2.1-.7,23.875,23.875,0,0,1-3.7-1.5,14.026,14.026,0,0,1-3.2-1.8,7.813,7.813,0,0,1-2.3-2.1,3.791,3.791,0,0,1-1-2v-.7a46.737,46.737,0,0,0-7.7,7.7A2.981,2.981,0,0,0,76.3,442.9Z"/><path class="j" d="M111.4,517a47,47,0,1,1,38.4-19.8A46.831,46.831,0,0,1,111.4,517Zm.2-91.7a44.78,44.78,0,0,0-44.2,52.3,44.791,44.791,0,0,0,80.7,18.3h0a44.711,44.711,0,0,0-10.7-62.4A45.084,45.084,0,0,0,111.6,425.3Z"/><path class="j" d="M158.2,485.6c1.5,1.3,3,2.6,4.4,4s2.8,2.8,4.2,4.3a32.4,32.4,0,0,1,3.7,5,11.855,11.855,0,0,1,1.3,3.2,5.171,5.171,0,0,1,.1,2.2,4.911,4.911,0,0,1-1,2.5,5.848,5.848,0,0,1-2.1,1.5,7.336,7.336,0,0,1-2,.5,19.266,19.266,0,0,1-3.4,0,40.028,40.028,0,0,1-6.2-1.2c-2-.5-3.9-1.2-5.8-1.8-1.9-.7-3.8-1.4-5.6-2.2-3.7-1.5-7.3-3.2-10.8-5s-7-3.6-10.5-5.5q-5.1-2.85-10.2-6c-3.4-2.1-6.7-4.2-10-6.4s-6.5-4.4-9.7-6.8-6.3-4.7-9.4-7.1c-3.1-2.5-6.2-4.9-9.1-7.5-1.5-1.3-3-2.6-4.4-4-1.5-1.3-2.9-2.7-4.3-4.1s-2.8-2.8-4.1-4.3-2.7-3-3.9-4.6a39.329,39.329,0,0,1-3.5-5.2,17.963,17.963,0,0,1-1.4-3.1,10.622,10.622,0,0,1-.4-1.9,5.107,5.107,0,0,1,.2-2.4,4.353,4.353,0,0,1,1.5-2.2,5.046,5.046,0,0,1,2.1-1,6.477,6.477,0,0,1,1.9-.2,9.149,9.149,0,0,1,1.7.1,30.12,30.12,0,0,1,6.1,1.4,54.218,54.218,0,0,1,5.6,2.2,51.992,51.992,0,0,1,5.3,2.6.984.984,0,0,1,.4,1.3.926.926,0,0,1-1.2.4h0c-1.8-.6-3.7-1.3-5.5-1.8a56.175,56.175,0,0,0-5.5-1.5,25.811,25.811,0,0,0-5.4-.7,6.464,6.464,0,0,0-2.2.3,1.069,1.069,0,0,0-.5.3c-.1.1,0,.1,0,.2a2.924,2.924,0,0,0,.4,1.5,11.946,11.946,0,0,0,1.2,2.2,33.734,33.734,0,0,0,3.4,4.3,101.916,101.916,0,0,0,8.1,8c5.7,5.1,11.7,10,17.9,14.6,3.1,2.3,6.2,4.6,9.4,6.8s6.3,4.4,9.6,6.6c3.2,2.2,6.5,4.3,9.7,6.3q4.95,3.15,9.9,6c6.6,3.9,13.4,7.7,20.3,10.9,3.5,1.6,7,3.1,10.5,4.3a34.583,34.583,0,0,0,5.3,1.4,23.2,23.2,0,0,0,2.4.2c.3,0,.7-.1.9-.1a.756.756,0,0,1,.4-.1s.1,0,.1-.2v-.7a9.355,9.355,0,0,0-.7-2.2,25.941,25.941,0,0,0-2.9-4.7c-1.1-1.5-2.3-3.1-3.5-4.5-1.2-1.5-2.5-2.9-3.8-4.4h0a.935.935,0,0,1,.1-1.3C157.3,485.3,157.8,485.3,158.2,485.6Z"/><circle class="a" cx="14.2" cy="14.2" r="14.2" transform="translate(80.9 341.8)"/><path class="b" d="M80.9,356a14.056,14.056,0,0,0,12.2,14,6.007,6.007,0,0,0-.5-3.7c-.9-1.8-2.3-3.4-2.4-5.4-.1-3.6,4.2-6.2,4.1-9.8a5.751,5.751,0,0,0-3.7-4.7,14.37,14.37,0,0,0-5.5-.7A15.14,15.14,0,0,0,80.9,356Z"/><path class="b" d="M103,344.2a10.805,10.805,0,0,0-.5,2.1c-.3,1.7.2,3.4.4,5.1s.1,3.6-1.1,4.9c-1,1-2.5,1.4-3.5,2.4a3.551,3.551,0,0,0-.7,3.9,3.774,3.774,0,0,0,3.4,2.1,19.8,19.8,0,0,0,2.6-.6,11.427,11.427,0,0,1,3.2,0,14.576,14.576,0,0,0,2.5-8A14.321,14.321,0,0,0,103,344.2Z"/><path class="j" d="M95.1,371.3A15.3,15.3,0,1,1,110.4,356,15.364,15.364,0,0,1,95.1,371.3Zm0-28.3a13.05,13.05,0,1,0,13.1,13A13.06,13.06,0,0,0,95.1,343Z"/><path class="j" d="M499.5,285.2c-.7-.7-1.5-1.3-2.2-2-5.6-4.9-10.9-9.4-11.2-17.9-.4-11-4.4-21.1-11.4-28.4a62.1,62.1,0,0,0-8.9-7.5c-4.7-3.5-9.6-7.1-14.8-14-13-16.8-29-15.9-35.1-15.5-10,.6-20.6,3.3-31,18.9-3.4,5.1-7.4,8-11.2,10.9-4.8,3.5-9.7,7.1-13.1,14.7-1.5,3.4-2,7.4-2.6,12-.8,6.5-1.8,14-5.9,22.2A113.5,113.5,0,0,1,345,290c-6.6,9.8-13.4,19.9-10.5,32.9a1.172,1.172,0,0,0,1.1.9h.3a1.12,1.12,0,0,0,.8-.7c4.8-1.1,37.4-8.2,62.1-8.2l3-25.6-10.5-25.6,2.4-26.7s22.7,2.9,41.8-15.6a21.554,21.554,0,0,0,7.4,7.3l5.4,31.9-13.2,29.5,5,25.1s39.3-.4,58.2.7l7.7.7a1.3,1.3,0,0,0,.8,1.2,1.138,1.138,0,0,0,1.4-.8C510.3,309.8,511.9,296.2,499.5,285.2Z"/><path class="a" d="M435.3,290.7l5.4,24.1h13.4s-4.9,12.1-17.9,15.9c-13.1,3.7-22.4,2.4-22.4,2.4a69.394,69.394,0,0,1-17.2-3.2c-8.7-2.7-10.6-3.9-23.9-12.3l25.9-2.8,4.3-27.4Z"/><path class="j" d="M647.1,566.8c-1.3-5.8-8.8-9.8-22.4-12.1-12.7-2.1-30.4-2.6-52.4-1.5C527,555.5,468.2,564.3,406.4,578c-61.7,13.7-118.7,30.7-160.7,47.8-20.5,8.3-36.2,16.2-46.9,23.6-11.4,7.8-16.5,14.7-15.2,20.4,1.3,5.8,8.8,9.8,22.4,12.1a11.039,11.039,0,0,1,1.6.3,204.1,204.1,0,0,0,29.5,1.8h0c6.6,0,13.7-.2,21.4-.6,45.3-2.3,104.1-11.1,165.9-24.8,61.7-13.7,118.7-30.7,160.7-47.8,20.5-8.3,36.2-16.2,46.9-23.6C643.2,579.5,648.3,572.6,647.1,566.8Z"/><path class="b" d="M327.4,442.6l2.7,27.9-4.7,71.4L314,676c33.7-4.3,71.2-11,109.7-19.6,55.3-12.3,106.9-27.2,147.2-42.5l-9.6-31.7s-14.2-59-18.4-81.6c-4.2-22.7-4.7-57.5-4.7-57.5l-14.7-31.8-6.7-66.4-2.3-26.6s-16.1-2.2-26.8-2.6-33.5-.7-33.5-.7c-3.2,8.5-10.6,13.8-20.4,16.8s-19.9,2.7-24.7,1.2-10-1.5-19.9-5.5c-7.8-2.7-16.3-9.8-16.3-9.8s-4.3-4.1-9.3-4.7-9.4,5.5-9.4,5.5a28.525,28.525,0,0,0-7.3-1.2c-3,.1-6.7,3.5-6.7,3.5-7.5-5.4-13.3,1.4-16,7.1s-6.4,27.9-4.7,63.9S327.4,442.6,327.4,442.6Z"/><path class="j" d="M571,615a1.17,1.17,0,0,1-1.1-.8c-17.1-53.6-25.3-96.6-29.2-123.3-4.2-28.9-4.4-45.4-4.4-45.6a1.11,1.11,0,0,1,1.1-1.1h0a1.11,1.11,0,0,1,1.1,1.1c0,.1.2,16.5,4.4,45.3,3.9,26.6,12.1,69.5,29.1,122.9a1.081,1.081,0,0,1-.7,1.4A.367.367,0,0,1,571,615Z"/><path class="b" d="M456.3,171.5v22.3a2.8,2.8,0,1,0,5.6,0V171.5Z"/><path class="j" d="M467.3,160.3h-3.1l-1.6-15.2a3.913,3.913,0,0,0-3.8-3.7,4.064,4.064,0,0,0-3.8,3.7l-1.6,15.2h-3.1a6.3,6.3,0,0,0,0,12.6H455v20.8a3.9,3.9,0,0,0,3.9,3.9,3.971,3.971,0,0,0,3.9-3.9V172.9H467a6.274,6.274,0,0,0,6.3-6.3A5.909,5.909,0,0,0,467.3,160.3Zm-6.5,33.5a1.685,1.685,0,0,1-1.7,1.7,1.628,1.628,0,0,1-1.7-1.7V173h3.4v20.8Z"/><path class="a" d="M455.3,147.6s-3.9-8-3.5-25.6,8.4-26.7,17.9-30.6,25.4-5.8,43.7.7,32.8,13.1,55.8,40.3,30,63.1,32.5,74.8c2.4,11.8,7.1,61,1.9,93.7S583.3,352,583.3,352s-29.5-28.2-61.4-32.8a47.288,47.288,0,0,0,23.3-20.5c9-15.7,12.5-38.3,11.9-63.3s-7.8-53.8-14.7-68.3c-6.9-14.6-26.3-37.5-44.2-41.4,0,0-10.8-6.3-23.3,11.9s-12.1,12.7-12.1,12.7-1.9-1.5.4-9.5c2.2-8,7.5-20.2,2.4-20.5-5-.4-3.9,23-5.4,26.1C458.5,149.6,455.3,147.6,455.3,147.6Z"/><path class="b" d="M461.7,97.9s7.8,1.5,19.4-1.5,31.7-.7,54.1,14.6,51.9,44.8,59.7,101.2,3.5,102-17.9,134.4c0,0,4.5,6.7,5.6,6s9.4-11.5,16.1-34c6.6-22.5,8.6-53.1,7.5-72.7-1.1-19.5-3.2-65.6-33.3-109.1-27.1-39.1-73.4-49.5-86.3-48.5C473.5,89.2,467,92.7,461.7,97.9Z"/><path class="a" d="M452.9,110.4s-16.1,28-13.3,30.8,11.8-10.6,11.8-10.6Z"/><path class="a" d="M457.2,100.4s-13,8.7-18.9,13.3c-6,4.6-9.4,8-8.1,9.8,1.4,1.9,9.8-2.9,9.8-2.9s11.1-13.7,11.6-14.1C452.1,106.2,457.2,100.4,457.2,100.4Z"/><path class="a" d="M455.6,105.1l-4.9,9.2L445,124.9l-2.7,6.2s-8.5,6.5-9.2,3.7c-.7-2.7,3.7-10,3.7-10l9.1-11.6,8.3-9.1Z"/><path class="j" d="M603,207.5c-4.2-21.9-11.4-42-21.4-59.6-19.1-33.6-51.4-52.7-73.3-58.8a64.679,64.679,0,0,0-31.2-.7c-7.6,1.8-13.7,5-18,9.4H459a248815758216.319,248815758216.319,0,0,0-.2.2l-.1.1-.1.1c-.1,0-.2.1-.3.1s-7.8,5-15.3,10.4c-13.8,10-15.1,13-14.5,14.8a3,3,0,0,0,1.9,1.9,5.066,5.066,0,0,0,1.3.2,10.384,10.384,0,0,0,4.4-1.2c-4.5,6.5-4.7,9-4.3,10.4a1.927,1.927,0,0,0,1.5,1.5,1.268,1.268,0,0,0,.6.1c1.7,0,4-1.4,6-2.9-2.3,5.9-1.9,7.6-1.1,8.5a2.463,2.463,0,0,0,1.9.9h.2c.9-.1,3.4-.2,9.8-9.1.7,6.5,2.2,13.1,4.4,15.3a2.5,2.5,0,0,0,3,.6c2.7-1.5,3.3-7.5,4-14.6.5-5.4,1.2-12.2,3-13.6a.618.618,0,0,1,.7-.2c.2,0,.3.1.4.3,1.1,1.8-1.1,8.8-2.7,14-2.6,8.4-4.7,15.1-1.3,16.7a3.079,3.079,0,0,0,1.3.3c2.7,0,5.2-3.8,8.4-8.7,4.5-6.8,10.1-15.2,17.7-17.1,6.8-1.6,18,3.2,28.6,12.2a95.691,95.691,0,0,1,27.9,40.8c9.6,27.3,12.3,61.8,7.7,88.9a175.067,175.067,0,0,1-4.9,19.1c-4.7,13.7-12.4,21.3-17.7,25-5.7,4.1-10.2,4.9-10.3,4.9a1.118,1.118,0,1,0,.4,2.2c.2,0,5-.9,11.1-5.2,10.1-7.2,15.7-18.3,18.7-26.4,5.5-12.2,11.2-17.1,15.8-21,3.7-3.2,6.7-5.7,7.7-11,3.8-19.9-27-80.3-28.3-82.9-.1-.1-.2-.3-.3-.4-13.9-32.5-43.2-51.8-56.9-48.5-8.5,2-14.6,11.2-19.1,18-2.6,3.9-5.5,8.3-6.9,7.7-.1-.1-.9-.6-.2-4.2a86.317,86.317,0,0,1,2.7-9.7c2.5-8.2,4-13.4,2.4-15.8a2.766,2.766,0,0,0-2-1.3,3.223,3.223,0,0,0-2.5.7c-2.6,2-3.2,8.4-3.8,15.2-.5,5-1.1,11.9-2.8,12.8h0c-.1,0-.4-.2-1-1.1-3.2-5.6-5.3-25.2-1.2-37.9,2.4-4.3,4.3-7.5,5-8.7,4-4.3,10-7.5,17.5-9.3a61.4,61.4,0,0,1,30.1.6c21.4,6,53.1,24.7,71.9,57.7,9.9,17.4,17,37.2,21.2,58.9,4.2,21.8,5.5,46.3,3.9,72.8-1.5,25-7.4,42.8-12,53.3-5,11.4-9.7,16.9-9.8,16.9a1.215,1.215,0,0,0,.1,1.6,1.08,1.08,0,0,0,.7.3,1.222,1.222,0,0,0,.9-.4c.2-.2,4.9-5.7,10.1-17.4,8.5-19.4,11.4-40.2,12.2-54.2C608.5,254.2,607.2,229.6,603,207.5ZM439,120.3c-2.4,1.6-6.3,3.5-7.9,3a.642.642,0,0,1-.5-.5c0-.3.6-2.8,14.1-12.6,2.5-1.8,5.1-3.6,7.4-5.1-2.3,2.5-4.9,5.5-7.5,8.5-2.1,2.5-3.8,4.6-5.3,6.6A.367.367,0,0,0,439,120.3Zm-5,13.9h0c-.2-.8,0-4.5,12.3-19.1,2.4-2.8,4.8-5.5,6.9-7.8-.1.2-.1.4-.2.6-1.8,3.1-3.7,6.7-5.7,10.3-2.2,4.1-4,7.8-5.4,10.9h-.1C438.4,132.2,434.9,134.3,434,134.2Zm16.6-4v.1c-5.2,7.5-8.4,10.2-9.7,10.3a.367.367,0,0,1-.3-.1c-.1-.2-1-2.9,8.9-21.7.5-1,1.1-2,1.6-3A75,75,0,0,0,450.6,130.2Z"/><path class="a" d="M498.9,300.3a1.028,1.028,0,0,1-1.1-1c-.3-5.9-4.8-9.5-9.5-13.3a49.176,49.176,0,0,1-5.4-4.7c-5.7-6-6-15.8-6-16.2a1.151,1.151,0,0,1,2.3-.1c0,.1.3,9.4,5.4,14.7a46.754,46.754,0,0,0,5.2,4.5c4.9,3.9,9.9,8,10.3,14.9a1.287,1.287,0,0,1-1.2,1.2Z"/><path class="a" d="M487.4,299.1a1.028,1.028,0,0,1-1.1-1c0-.2-.4-4.4-5.4-7.3-8.8-5.1-7.5-13-7.4-13.4a1.118,1.118,0,0,1,2.2.4c0,.3-1.1,6.8,6.3,11,6.1,3.5,6.5,8.9,6.5,9.1a1.03,1.03,0,0,1-1.1,1.2Z"/><path class="a" d="M324.9,325.4s-4.7,10.2-5.5,44.3a376.24,376.24,0,0,0,4.2,63.7s-8.2-12.7-23.4-17.4-47.8-15.9-68.4-30.9c-20.6-14.9-35.6-26.6-46.3-53.8-10.7-27.1-9.7-70.7-6.7-83.6,0,0-3.2-7.2-3.4-11.5,0,0-6,11.3-8,9.7s-.3-7.6,1-11.8c1.2-4.2,3.1-11.9,7.6-10.8,0,0,2.4-6.7,5.1-7.1a7.127,7.127,0,0,1,5,1.5s2.1-3.4,5-2.5a32,32,0,0,1,6.7,3.5s-1.7-24.7,1.3-24.8,4.2,6.1,5.6,10.1,5.6,24.5,5.6,24.5,8.3-16.1,10.6-13.1c2.2,3-2,13.9-2,13.9s-7.4,30-5.6,51,7,36.5,18.2,48.8,23.4,13.7,36.5,12.1,31-7.4,31-7.4Z"/><path class="b" d="M324.9,325.4l-26,8.5s-34.5,12.7-54.5,3.9S214,302.9,212.9,282s3.5-41.4,3.5-41.4-5.9,3.2-7.5,13.6c-1.4,9.1-3.2,26.7,3.8,56.7,3.5,15.1-2.5,20.4-5,26-2.7,5.9,0,11.9,16.1,13.5,12.4,1.2,25.1-.4,33.7-2.2,37-7.6,48-12.1,66-18.1Z"/><path class="j" d="M463.7,410.2h0l-12.9-9.4-6.3-4.9c-2.1-1.6-4.2-3.2-6.3-4.9-8.3-6.7-16.5-13.4-24.3-20.6-2-1.8-4-3.5-5.9-5.4s-3.8-3.7-5.7-5.5l-5.6-5.6-.7-.7-.7-.7L394,351l-2.7-2.9c-.9-1-1.8-2-2.7-2.9l-2.7-3c-.9-1-1.7-2-2.6-3a37.62,37.62,0,0,1-2.5-3.1l-2.5-3.1-2.4-3.2c-.8-1.1-1.5-2.2-2.3-3.2l-1.1-1.6-.5-.8-.3-.4a34.622,34.622,0,0,1,1.2-4.2l.7.8,1.8,2.1c1.2,1.4,2.5,2.7,3.8,4,2.6,2.7,5.3,5.2,8,7.5A142.317,142.317,0,0,0,405,347a156.4,156.4,0,0,0,19.5,10.1,154.53,154.53,0,0,0,20.8,7.1c.2.1.5-.1.6-.3s-.1-.5-.3-.6A152.882,152.882,0,0,1,425,356a141.175,141.175,0,0,1-19.2-10.2,138.16,138.16,0,0,1-17.4-13q-4.05-3.6-7.8-7.5c-.7-.7-1.3-1.4-2-2.2a72.343,72.343,0,0,0,9.9,5.4,74.516,74.516,0,0,0,30.1,6.2,78.748,78.748,0,0,0,15.5-1.5c9.3-1.8,19.1-10.2,21-18a1.079,1.079,0,1,0-2.1-.5c-1.7,6.9-10.8,14.7-19.2,16.4-19.5,3.7-34.8-.4-44.1-4.6a63.556,63.556,0,0,1-14.4-8.7c13.6-1.4,23.6-1.8,23.7-1.8a1.09,1.09,0,0,0,1.1-1l3.4-29.9a1.1,1.1,0,0,0-2.2-.2l-3.2,28.9c-3,.1-12.7.6-24.9,2a12.739,12.739,0,0,0-9.4-3.6c-4.8.2-8.4,3.4-9.6,4.7a25.7,25.7,0,0,0-4-.7,15.613,15.613,0,0,0-4.8.4,9.4,9.4,0,0,0-4.3,2.5l-.2.2c-4.9-3.8-11,0-13.6,2.7a26.7,26.7,0,0,0-2.3,2.9c-4.1,1.2-8.3,2.5-12.7,3.9-27.4,8.7-58.4,18.5-74.5,3.5-9.4-8.7-15.7-18.3-19.4-29.4-3.1-9.4-4.3-20.2-3.9-33.7.4-13.3,3.4-28.1,5.6-38.8s2.8-14.3,1.9-15.6a1.834,1.834,0,0,0-1-.7c-2.5-.4-5.6,3.6-7.2,6a38.044,38.044,0,0,0-3.2,6c-.6-3.2-1.5-8.2-2.6-13.4-3.5-15.9-5.7-18.9-7.1-19.7a2.528,2.528,0,0,0-1.8-.3c-1.9.6-3.6,3.2-2.6,17.8a63.254,63.254,0,0,0,.6,6.4c-2.4-1.9-6.5-4.3-9.8-1.8a4.561,4.561,0,0,0-1.2,1.2,5.652,5.652,0,0,0-1.9-1.2,5.308,5.308,0,0,0-4.2.5c-1.7.9-2.9,3-3.7,6.4a4.511,4.511,0,0,0-5.1,2.4c-1.1,1.9-6.5,16.7-5.2,21.1a2.081,2.081,0,0,0,1.2,1.5,2.509,2.509,0,0,0,1,.2,2.768,2.768,0,0,0,.9-.1c2.2-.8,4.9-5,6.6-8.2.6,4.1,1.4,6.8,2.6,8.2a195.658,195.658,0,0,0,.3,58.9c2.3,13.8,6.2,30.1,17.1,46.1,11.2,16.5,29,31.2,54.2,45.1,12.1,6.7,24.3,10.8,35.1,14.4,18.8,6.4,33.9,11.5,39.9,26.7a24.9,24.9,0,0,0,1.1,3.5c.6,2.1,4.3,15.4,3.1,37.9-1.1,21.2-4.3,61.6-4.3,61.9h0L314,676.8c.3,0,.5-.1.7-.1-.1,0,.2-.1.3-.1a4.87,4.87,0,0,1,1.2-.1h.1l10.8-134.6h0c0-.4,3.2-40.8,4.3-62,1-20.2-1.6-32.9-2.8-37.3v-.3h0a38.123,38.123,0,0,0-1.4-4.4c-.7-2.7-1.7-6.6-2.6-11.9-1.8-10.1-3.8-27.4-3.5-52.3.4-37.4,4.2-46.2,8.1-50.2.1-.1,6.1-6.1,10.6-2.4a5.359,5.359,0,0,0-.5,1.1c-.1.2-.1.4-.2.6s-.1.4-.2.6a111.381,111.381,0,0,0-3.5,22.8,220.454,220.454,0,0,0,.1,23c.4,7.7,1.2,15.3,2.1,22.9s1.9,15.2,3.1,22.7a.608.608,0,0,0,1.2-.2c-1.1-7.6-2.1-15.2-2.9-22.7-.8-7.6-1.5-15.2-1.8-22.8a216.759,216.759,0,0,1,.1-22.8,105.737,105.737,0,0,1,3.6-22.4v-.1c0-.1.1-.3.1-.4a.758.758,0,0,1,.2-.4c.1-.3.3-.6.4-.9a6.1,6.1,0,0,1,1.2-1.6,7.168,7.168,0,0,1,3.4-1.9,11.227,11.227,0,0,1,4.1-.3,29.309,29.309,0,0,1,2.9.5c-.1.1-.1.3-.2.4l-.6,1.8a12.091,12.091,0,0,0-.5,1.8,12.09,12.09,0,0,1-.5,1.8l-.4,1.8-.3,1.8-.3,1.8-.2,1.8c-.1.6-.1,1.2-.2,1.8l-.1,1.8-.1,1.8c0,.6-.1,1.2-.1,1.8,0,1.2-.1,2.4-.1,3.6v7.2l.1,3.6.2,3.6.1,1.8c0,.6.1,1.2.1,1.8.2,2.4.4,4.8.6,7.1l.8,7.1a.5.5,0,0,0,.6.5c.3-.1.6-.3.5-.6h0l-.7-7.1c-.2-2.4-.3-4.7-.5-7.1,0-.6-.1-1.2-.1-1.8l-.1-1.8-.1-3.5v-7l.1-3.5c0-1.2.1-2.4.2-3.5,0-.6.1-1.2.1-1.8l.2-1.8.2-1.8.3-1.8.3-1.8c.1-.6.2-1.2.3-1.7a10.461,10.461,0,0,1,.4-1.7l.4-1.7a10.926,10.926,0,0,1,.5-1.7,7.494,7.494,0,0,1,.5-1.6c.2-.6.4-1.1.6-1.6a4.88,4.88,0,0,1,.3-.7c.1-.1.1-.2.2-.4,0-.1.1-.1.1-.2h0c.5-.6,3.9-4.1,8.5-4.3a11.388,11.388,0,0,1,7.9,3.1,26.589,26.589,0,0,0-1.9,5.9.749.749,0,0,0-.1.5,104.57,104.57,0,0,0-2,18.9v.3c-.4,12.2.2,29.9,3,55a1.164,1.164,0,0,0,1.1,1h.1a1.188,1.188,0,0,0,1-1.2c-1.1-9.8-1.8-18.4-2.3-26.1.5,1,1,2,1.5,2.9,1.5,2.8,3,5.5,4.6,8.1a116.26,116.26,0,0,0,11.1,15A96.078,96.078,0,0,0,401.8,411l.9.7a5.5,5.5,0,0,1,.9.7l1.9,1.4,1.9,1.3,1,.6,1,.6,2,1.2,2.1,1.1,1,.6,1,.5,2.1,1a.515.515,0,0,0,.5-.9h0l-2.1-1-1-.5-1-.6-2-1.2-1.9-1.2-1-.6-.9-.6-1.9-1.3-1.8-1.4a5.5,5.5,0,0,1-.9-.7l-.9-.7a99.053,99.053,0,0,1-13.1-12.8,119.321,119.321,0,0,1-10.7-14.9,89.381,89.381,0,0,1-4.4-8c-.7-1.4-1.3-2.8-2-4.1l-1.8-4.2c-.3-7-.4-13-.4-18.2a14,14,0,0,0,1,1.6c1.1,1.8,2.2,3.5,3.4,5.2a121.377,121.377,0,0,0,7.7,9.7c2.7,3.1,5.6,6,8.5,8.9.7.7,1.5,1.4,2.2,2.1l2.3,2.1c1.5,1.3,3.1,2.7,4.6,4a214.378,214.378,0,0,0,19.7,14.7c6.8,4.5,13.9,8.7,21.1,12.5a.44.44,0,0,0,.5-.1.661.661,0,0,0-.1-.6c-7.2-3.9-14.1-8.2-20.9-12.8a212.581,212.581,0,0,1-19.4-14.9c-1.5-1.3-3-2.7-4.6-4.1l-2.2-2.1c-.7-.7-1.5-1.4-2.2-2.1-2.9-2.9-5.6-5.9-8.3-8.9-2.6-3.1-5.1-6.3-7.4-9.6-1.2-1.7-2.2-3.4-3.3-5.1-.5-.9-1-1.7-1.5-2.6-.4-.8-.9-1.6-1.2-2.4a122.566,122.566,0,0,1,1.4-16l.6.9c.8,1.1,1.5,2.2,2.4,3.3l2.4,3.2,2.5,3.1c.8,1,1.7,2.1,2.6,3.1s1.7,2.1,2.6,3l2.7,3c.9,1,1.8,2,2.7,2.9l2.8,2.9,1.4,1.5.7.7.7.7,5.7,5.6c1.9,1.8,3.9,3.7,5.8,5.5s4,3.6,5.9,5.3c8,7.1,16.2,13.8,24.6,20.4,2.1,1.6,4.3,3.2,6.4,4.8l6.4,4.8,13,9.3c.2.1.5.1.6-.1A1.882,1.882,0,0,0,463.7,410.2ZM175.4,225.1a53.593,53.593,0,0,0-.4,9.9c-.3.5-1.5,3-2.9,5.5-2.7,4.4-3.9,4.8-4.1,4.8-.1-.3-.7-2.1,1.4-9.5a74.523,74.523,0,0,1,3.5-10,2.488,2.488,0,0,1,2.7-1.4A1.445,1.445,0,0,0,175.4,225.1Zm2,12.5c-.9-7.8.4-18.4,3.3-19.9,2.5-1.3,3.6.3,4,.8-1.8,4.6-1.2,11.8-.7,15.7v.1c-1.2,5.7-2.8,11.1-3.7,11.9a.6.6,0,0,1-.4-.1C179.4,245.7,178.2,244.2,177.4,237.6Zm140.9,136c-.3,27.3,2,45.7,4.2,56.6-7.7-10.6-21.2-15.2-37.2-20.6-10.7-3.6-22.8-7.7-34.8-14.3-56-30.8-65.3-61.1-70.1-89.6a193.012,193.012,0,0,1-.4-57.4h.1a2.2,2.2,0,0,0,.8-.1c.9-.3,2-1,3.7-7.4.1-.4.2-.9.3-1.3,1,3.6,2.7,6.9,4.8,6.9h.4c.7-.1,2.4-.4,3.6-8.9a77.8,77.8,0,0,0,.7-15.2,1.151,1.151,0,0,0-2.3.1c.4,9.6-1.2,20.2-2.6,21.8-.7-.4-2.2-2.9-3.1-7.7a54.867,54.867,0,0,1-.9-10.9c.1-4.5,1.1-7.6,2.6-8.8,3.1-2.3,8.1,2.5,8.8,3.3.4,3.4.7,5.8.7,5.9a1.118,1.118,0,0,0,2.2-.4c0-.1-1.1-7.7-1.6-15.4-.9-13.3.7-15.2,1-15.4.4.2,2.5,2.2,5.9,17.7,1.9,8.7,3.3,17.3,3.3,17.4h0c-.4,1.2-.7,2.3-1,3.4-2.5,1.2-12.7,6.4-13.4,15.4a1.1,1.1,0,1,0,2.2.2c.7-8.7,12.4-13.7,12.5-13.7a1.143,1.143,0,0,0,.7-.8c2.4-9.8,8.2-17.4,10.2-18.3.1,1.9-1.1,7.8-2.3,13.6-2.2,10.8-5.3,25.7-5.7,39.2-.4,13.8.9,24.8,4,34.5a70.869,70.869,0,0,0,20,30.3c6.5,6,15.2,8.3,25,8.3,15.8,0,34.5-5.9,51.7-11.4,3.7-1.2,7.2-2.3,10.6-3.3C320.8,333.8,318.6,346,318.3,373.6Z"/><circle class="a" cx="108.8" cy="108.8" r="108.8" transform="translate(314.8 385.2)"/><path class="l" d="M314.8,494a108.669,108.669,0,0,0,49.9,91.5c1.3-3.5,2.2-7.2,4.3-10.3,4.6-6.9,13.5-9,21.4-11.7,7.8-2.7,16.3-8.1,16.6-16.4.6-14.6-23.4-19.6-24.9-34.1-.9-8.5,6.5-15.2,11.8-21.9,8.3-10.4,11.8-27.3,1.8-36-7.4-6.5-18.6-5.5-27.7-9.1-17.5-7.2-14-20.8-15-34.8A108.518,108.518,0,0,0,314.8,494Z"/><path class="l" d="M532.4,494a108.058,108.058,0,0,0-29.3-74.2c-9.6.4-19.7,6.7-24.9,14.4-6.7,10-8.2,22.6-8.4,34.6s.7,24.3-2.1,36c-2.4,9.8-7.2,18.9-8.9,28.9-1.8,9.9.6,21.7,9.3,26.8,4.4,2.7,9.8,3.1,14.6,4.8,4.9,1.7,9.8,5.5,9.9,10.6,0,.7-.1,1.5-.1,2.2A108.376,108.376,0,0,0,532.4,494Z"/><path class="b" d="M518.4,440.6c-7.8.2-16.5,3.8-22.2,7.8a20.686,20.686,0,0,0-6.8,7.3,21.817,21.817,0,0,0-1.9,8c-.7,8.4.3,16.9.4,25.3s-.9,17.2-5.3,24.4c-2.3,3.8-5.5,6.9-7.6,10.8s-2.8,9-.1,12.5c3.1,4.1,9.1,4.3,14,3.2,5-1,10-3,15-1.9,5.6,1.3,9.7,6.3,14.7,9a108.758,108.758,0,0,0-.2-106.4Z"/><path class="b" d="M432.5,393a108.087,108.087,0,0,1,67,23.1,108.748,108.748,0,0,0-168.7,21.1h0a6.726,6.726,0,0,1-.7,1.1,2.177,2.177,0,0,1-.5.8c-.2.4-.4.7-.6,1.1-.2.3-.3.6-.5.9a16.175,16.175,0,0,1-1,1.8,4.053,4.053,0,0,1-.5.9c-.2.4-.4.7-.6,1.1a9.249,9.249,0,0,1-.5,1,13.017,13.017,0,0,0-.8,1.7,4.671,4.671,0,0,1-.5,1,25648672631034.723,25648672631034.723,0,0,0-1,2.2c-.2.4-.4.9-.6,1.3l-.6,1.5c-.1.3-.3.7-.4,1-.1.4-.3.8-.4,1.2a6.9,6.9,0,0,1-.4,1,14.579,14.579,0,0,1-.7,1.9l-.3.9c-.1.4-.3.9-.4,1.3l-.3.9c-.2.7-.4,1.3-.6,2.1a6.375,6.375,0,0,1-.2.7c-.1.5-.3,1-.4,1.6-.1.3-.1.6-.2.9-.1.6-.3,1.2-.4,1.9,0,.2-.1.4-.1.7-.1.6-.3,1.3-.4,1.9,0,.3-.1.5-.1.8l-.3,1.8c0,.2-.1.4-.1.6-.1.7-.3,1.5-.4,2.3,0,.2-.1.5-.1.7l-.3,1.8a1.268,1.268,0,0,1-.1.6l-.3,2.4a1.268,1.268,0,0,1-.1.6c-.1.6-.1,1.3-.2,1.9v.6a19.267,19.267,0,0,0-.1,2.4v.4c0,.7-.1,1.4-.1,2.1v6a16.2,16.2,0,0,0,.1,2.2v.3c0,.7.1,1.4.1,2.1v.4a16.351,16.351,0,0,0,.2,2.2v.4c.1.7.1,1.5.2,2.2h0c.1.7.2,1.5.3,2.3a.6.6,0,0,0,.1.4c.1.7.2,1.5.3,2.2v.1c.1.7.3,1.5.4,2.2v.3c.1.7.3,1.5.4,2.2v.3c.3,1.5.7,3.1,1.1,4.6,0,.1,0,.1.1.2.4,1.5.9,3.1,1.3,4.6v.1a108.774,108.774,0,0,0,36.9,53.4,113.145,113.145,0,0,1-12.8-14.9,31.555,31.555,0,0,1,5.3-3.7c6.1-3,13.3-2.2,20-3.1s14.1-5.5,13.9-12.2c-.2-7.2-8.5-11-12.3-17.1-8-12.9,6-31.1-1.2-44.5-5.2-9.6-18.2-11.3-26.7-18.1a27.288,27.288,0,0,1-8.4-11.4A109.6,109.6,0,0,1,432.5,393Z"/><path class="j" d="M423.6,603.9a109.938,109.938,0,1,1,77.7-32.2A108.986,108.986,0,0,1,423.6,603.9Zm0-217.6a107.548,107.548,0,1,0,76.1,31.5A107.043,107.043,0,0,0,423.6,386.3Z"/><path class="b" d="M407.9,423.1a9.887,9.887,0,0,0-3,.4,17.53,17.53,0,0,0-33.5,7.2v.4h48.3A12.875,12.875,0,0,0,407.9,423.1Z"/><path class="b" d="M456.4,518.6v-.4a17.5,17.5,0,0,0-35,0v.4Z"/><path class="b" d="M468.7,518.6a12.556,12.556,0,0,0-23.4,0Z"/><rect class="a" width="220.8" height="34.2" transform="matrix(1, -0.007, 0.007, 1, 310.485, 609.444)"/><path class="j" d="M532.4,607.7a1.11,1.11,0,0,0-1.1-1.1l-220.8,1.6a1.032,1.032,0,0,0-1.1,1.1l.3,34.2a1.11,1.11,0,0,0,1.1,1.1h0L531.6,643a1.032,1.032,0,0,0,1.1-1.1ZM311.9,642.4l-.3-31.9,9.7-.1v18.4a1.1,1.1,0,0,0,2.2,0V610.4l16.8-.1.1,7.2a1.11,1.11,0,0,0,1.1,1.1h0a1.11,1.11,0,0,0,1.1-1.1l-.1-7.2,17-.1v18.7a1.1,1.1,0,0,0,2.2,0V610.2l14.9-.1.1,7.1a1.11,1.11,0,0,0,1.1,1.1h0a1.11,1.11,0,0,0,1.1-1.1l-.1-7.1L393,610v18.9a1.1,1.1,0,0,0,2.2,0V610l14.4-.1.1,7.1a1.11,1.11,0,0,0,1.1,1.1h0a1.11,1.11,0,0,0,1.1-1.1l-.1-7.1,14.7-.1v19.1a1.1,1.1,0,0,0,2.2,0V609.7l14.1-.1.1,7.1a1.11,1.11,0,0,0,1.1,1.1h0a1.11,1.11,0,0,0,1.1-1.1l-.1-7.1,15-.1v19.4a1.1,1.1,0,0,0,2.2,0V609.5l14.4-.1.1,7.1a1.11,1.11,0,0,0,1.1,1.1h0a1.11,1.11,0,0,0,1.1-1.1l-.1-7.1,14.7-.1v19a1.1,1.1,0,0,0,2.2,0V609.2L512,609l.1,7.1a1.11,1.11,0,0,0,1.1,1.1h0a1.11,1.11,0,0,0,1.1-1.1l-.1-7.1,15.9-.1.3,31.9Z"/><circle class="b" cx="4.7" cy="4.7" r="4.7" transform="translate(515.4 620.5)"/><path class="a" d="M233.8,429.8s-25.6,23.2-32.6,78.6,21.9,88.8,30.3,103.5,47.4,33,47.4,33,16.4,4.7,28.6,5.7,26.2-1.2,25.3-3-7.7-3.6-15.4-5-25.1-2.1-24.8-13.6c.3-11.6,12.5-14.6,12.5-14.6s28.1-4.7,27.3-12.8c0,0-20-.3-22.4-.4s-24,4.7-45.4-17.1-20.7-47.6-20.9-56.8,3.2-28.6,7.3-34.2l-6.9-37.4Z"/><path class="b" d="M214.2,479.8s-14.2,45.9,4.9,92.9c19,47,58.6,59,54.5,69.8,0,0-25.4-8.2-47.8-38.1s-24.3-63.1-25.3-76c-1-13,5.2-45.1,7.5-51.5Z"/><path class="a" d="M278.9,644.9s15.8,15.3,20.2,18.1c4.4,2.9,9.5,7.7,11.3,4.8s-5.5-11.7-5.5-11.7Z"/><path class="a" d="M289.9,649.1l19.5,9.3s15.5,7,16.9,3.1c1.3-3.9-13.6-10.8-13.6-10.8Z"/><path class="j" d="M334.3,647.3c-.4-1.5-2.3-2.5-12.2-4.6-1.9-.4-3.9-.7-6-1.1-8.9-1.5-19-3.3-22-8.3a7.53,7.53,0,0,1-.4-6.3c3.1-10,12.8-12.2,22.2-14.4,2.4-.6,4.7-1.1,6.8-1.7,5.7-1.8,9.3-4,10.6-6.8a4.312,4.312,0,0,0,.3-3.5,1.273,1.273,0,0,0-1.2-.7c-.3,0-35.4,3.1-50.5-4.3a63.716,63.716,0,0,1-28.4-28.3c-6.4-12.4-9.4-27.4-8.8-43.3a90.642,90.642,0,0,1,2.5-17.7.6.6,0,0,0,.1-.4,47.9,47.9,0,0,1,4.6-12.2,1.1,1.1,0,0,0-1.9-1.1,48.994,48.994,0,0,0-4.2,10.5l-28.5-43.7a1.094,1.094,0,0,0-1.3-.4,135.5,135.5,0,0,1,18.1-28.6,1.134,1.134,0,1,0-1.7-1.5A139.936,139.936,0,0,0,212,462.3a150.439,150.439,0,0,0-11.9,73.2,139.4,139.4,0,0,0,12.6,48.8,123.529,123.529,0,0,0,23.8,34.2c14,14.2,29.5,23.1,41.8,27.6,0,.1.1.1.1.2.1.1,6.6,6.3,13.5,12.4,11.7,10.1,15.3,11.6,16.9,11.6.4,0,.6-.1.8-.1a3.148,3.148,0,0,0,2.2-2.2c.3-1.3.2-3.6-4-9,6.8,2.9,13.3,5.3,16,5.3h.1c1.8,0,3.1-.8,3.4-2.1.4-1.3-.2-3.7-5.3-6.9-1.3-.9-3.2-2-4.8-2.9,9.1,0,14.6-1.3,15.7-2.3C333.7,649.3,334.6,648.5,334.3,647.3ZM303.6,657c6.2,7,6.4,9.5,6.2,10.2a1.16,1.16,0,0,1-.7.7c-.4.1-2.9-.1-15.7-11.2-3.8-3.3-7.5-6.7-10-9,.6.2,1.2.3,1.8.5.7.4,9.2,4.6,18.2,8.6C303.5,656.9,303.5,657,303.6,657Zm21.7,4.4c0,.1-.5.4-1.3.4-4,.1-19.3-6.7-30-11.8a145.684,145.684,0,0,0,18.8,2c1.1.6,5.6,3.2,8.2,4.9C324.8,659.5,325.4,661,325.3,661.4Zm6.3-13.3c-1.3,1-16.8,3.9-42.7-1.3-12.9-2.6-33-11.8-50.7-29.9a122.894,122.894,0,0,1-23.4-33.6,138.654,138.654,0,0,1-12.4-48,150.675,150.675,0,0,1,5.5-55c2.4,1.1,12.8,6.3,15.3,17.3.3,1.2.6,2.4.8,3.7,2.7,12.4,6.1,27.8,18.6,30.3a86.119,86.119,0,0,0,9,36.8,65.339,65.339,0,0,0,29.5,29.3c6.6,3.2,17.3,5,31.8,5.2,8.5.1,16-.4,18.7-.6a2.236,2.236,0,0,1-.3,1c-.7,1.5-3,3.6-9.2,5.6-2.1.6-4.3,1.2-6.6,1.7-9.6,2.2-20.4,4.7-23.9,15.9a9.759,9.759,0,0,0,.6,8.1c3.6,5.9,14.2,7.7,23.6,9.3,2.1.4,4.1.7,5.9,1.1,7.5,1.5,9.7,2.4,10.3,2.9A.758.758,0,0,1,331.6,648.1Z"/><path class="a" d="M244.8,401.4s-29.9,13.1-31,51.1,42.6,59.7,42.6,59.7,30,17.9,49.1,22.6c19,4.7,41.4,8,41.8,4.3s-18.7-7.3-18.7-7.3a2.079,2.079,0,0,1,1.9-1.7c1.7-.2,17.9-2.1,21.1-2.8s9.9-3.4,9.3-4.9-8-2.8-8-2.8,12.5-2.1,11.9-4.9-9.5-3-15.9-3c-6.3,0-16.8,0-16.4-1.5s8.8-3,8.8-3,24.6-6.2,23.3-8.2-6-1.5-12.1-1.1-21.1,2.8-21.5.9,3.9-6.9,3.9-6.9,10.8-11,4.7-13.6l-18.7,12.1-6.5,5.4s-15.7-5.8-27.8-16.6-15.3-18.3-15.3-18.3l.2-11.9s16.4-20.2,8-30.6A49.543,49.543,0,0,0,259.9,404Z"/><path class="b" d="M281.4,516.4c-34.3-10.5-56.4-28.7-58.2-62-1.7-30.6,27-48.6,31.5-51.2l-9.9-1.8s-29.9,13.1-31,51.1,42.6,59.7,42.6,59.7,30,17.9,49.1,22.6C305.4,534.8,315.7,526.8,281.4,516.4Z"/><path class="j" d="M366.3,515.5c-.5-5.2-10.3-4.8-19.8-4.5-3.5.1-6.8.3-9.3.1a7.024,7.024,0,0,1-3.4-.7c1.7-1,8.2-2.5,13.1-3.5,11.9-2.7,17.7-4.2,18.5-6.6a2.1,2.1,0,0,0-.4-2c-2.2-2.8-9.9-1.9-21.4-.3-4.5.7-10.7,1.6-11.9,1-.7-1.4,3.5-6.2,5.6-8.4,1-1.1,1.9-2.1,2.6-3,2.6-3.3,2.8-7.4,1.2-9.2a2.6,2.6,0,0,0-3.4-.5c-1.3.7-5.7,3.9-10.8,7.6-5,3.6-11.8,8.5-13.5,9.4-2.6-1-17.2-6.9-32.2-21.9a39,39,0,0,1-8.1-10.8c3-3.7,21.6-25.6,45.9-32.2a1.172,1.172,0,0,0,.8-1.4,1.084,1.084,0,0,0-1.1-.8h0a1.183,1.183,0,0,0-.1-1c-3.5-5.5-17.7-11.4-18.3-11.6h-.1c-.2-.1-19.1-6.2-25.8-8.4-6.6-2.2-21-9.6-21.1-9.6h0c-.1,0-.1-.1-.2-.1h-.7a64.4,64.4,0,0,0-17.5,10,58.25,58.25,0,0,0-21.7,36.7c-5.1,31.7,14.5,51.8,31.8,63.1a261.382,261.382,0,0,0,49.2,24.9c18,6.8,34.7,10.3,48.3,10.3h1c.8,0,3.5-.2,4.6-1.3a1.792,1.792,0,0,0,.4-1.4c-.4-4-7.9-5.7-14.5-7.1-1.2-.3-2.6-.6-3.7-.9,2.5-.4,6.8-.9,10.4-1.3l3.3-.3c7.1-.8,15-2.9,17.2-4.7a2.236,2.236,0,0,0,1-2.8c-.5-1.3-2.2-2-4.4-2.4.2,0,.4-.1.6-.1C365.2,518.1,366.4,516.9,366.3,515.5Zm-6,7.5-.2.2c-1.8,1.4-9,3.5-16.1,4.3l-3.3.3c-10.4,1.1-13.2,1.5-13.9,2.6a1.389,1.389,0,0,0-.2,1.1c.4,1.3,2.1,1.7,7.2,2.8,4.2.9,12,2.7,12.7,4.9a8.786,8.786,0,0,1-2.8.5h-1c-31.4,0-71.3-18.7-96.2-34.9-30.4-19.8-33.6-44-30.9-60.8a55.891,55.891,0,0,1,20.9-35.3,70.274,70.274,0,0,1,9.5-6.3h.2c15.1.6,33.6,12.8,34.6,23.1.6,5.7-2.2,9.7-5.7,14.9-.5.7-1,1.5-1.6,2.3-2.9,4.3-5.7,10.9-3.4,17.9.2.5.7,1.5.8,1.8h0a44.614,44.614,0,0,0,8.9,12c16.9,16.9,32.8,22.4,33.5,22.6.1,0,.3.1.5,0,.8-.1,3.4-1.9,14.6-9.9,4.6-3.3,9.4-6.8,10.6-7.4.4-.2.5-.1.6,0,.7.8.8,3.7-1.3,6.3-.7.8-1.6,1.8-2.5,2.9-3.8,4.2-7.7,8.6-5.7,11.3,1.1,1.5,4.5,1.2,14-.2,7-1,17.5-2.5,19.3-.6-.3.3-1.3,1.1-5.4,2.3-3.2,1-7.4,1.9-11.4,2.8-9.9,2.2-14,3.2-14.9,4.9a1.5,1.5,0,0,0-.1,1.3c.9,2.8,6,2.7,15.1,2.4,7.1-.3,16.6-.6,17.5,2.2-1.5,1.2-10,3.3-18,4.2h0c-.7.1-1.4.1-1.9.2a86.343,86.343,0,0,1-14.6-.2,1.1,1.1,0,1,0-.2,2.2c.2,0,3.9.4,8.9.4a53.342,53.342,0,0,0,5.6-.2h.6a16.455,16.455,0,0,0,2.1-.2h.1C355.5,521.1,359.7,522.2,360.3,523Z"/><path class="a" d="M615.1,430.9a217.909,217.909,0,0,1,23.1,51.5c9,29.9-12.3,51.1-28,53.8-15.7,2.6-40.3-7.8-40.3-7.8s-28.6-11.6-35.5-11.8-31.7-1.7-32.3-1.9-12.5-2.4-11.6-4.9,9.8-2.1,9.8-2.1,10.3,1.5,10.5.4c.1-1.1-7.6-3.4-7.6-3.4s-20.6-4.7-19.7-7.7c1-3,9.1-2.1,9.1-2.1s-12.8-2.4-12.2-5.7c.6-3.4,8.1-3.1,8.1-3.1s24.6,3.6,24.9.7-21.3-7.7-21.3-7.7-11.1-3.5-9.3-5.9,10.2-1,10.2-1l22.7,5s3.7,1,4.2-.7-5.3-17.4-5.3-17.4.9-4.6,2.5-4.4c1.6.3,7,6.3,7,6.3s11.1,16.1,21.8,20.2,26.6,8.5,34.2,7.6l20.4-16.3,6-15.9,7.8-15.7Z"/><path class="b" d="M638.2,482.4A317.762,317.762,0,0,0,616,428.3l-1.8,12.6-.3,1c3.9,5.9,17.4,28.4,19.2,51.7,1.9,25.9-7.1,32.7-7.1,32.7a8.723,8.723,0,0,0,1.3.6C637.2,517.4,644,501.7,638.2,482.4Z"/><path class="j" d="M641.2,490.1c-.7-8.1-3.7-18.9-8.7-31.1a254.668,254.668,0,0,0-16.2-32.7,1.1,1.1,0,0,0-1.9,1.1c11.1,18.9,23,45.6,24.6,62.9,1,11.5-3.2,24.3-11.1,33.4-4.3,5-11.7,11.1-22.2,11.6-15.9.8-36.5-7.7-50.2-13.4-4.7-1.9-8.8-3.7-11.6-4.5-8.6-2.7-18-3-27.1-3.3-8.5-.3-16.5-.6-22.7-2.8a9.217,9.217,0,0,1-2.5-1.4c1.4-1.9,9.3-1,13.6-.6,5.2.6,6.9.7,7.7-.4a1.392,1.392,0,0,0,.1-1.4c-.9-2.1-8.3-3.8-12.7-4.7-7-1.3-14.1-4-15.7-5.6-.1-.1-.2-.2-.2-.3.6-.5,4.1-1.7,14,0h.1a105.5,105.5,0,0,0,15.4,1.8h0a1.11,1.11,0,0,0,1.1-1.1,1.278,1.278,0,0,0-1.1-1.2,92.213,92.213,0,0,1-12.5-1.3h0c-.6-.1-1.4-.3-2.4-.4h0c-7.9-1.5-16.3-4.4-17.6-5.6,1.1-2.8,11.4-1.6,18.3-.8,8.7,1,13.8,1.5,15.3-.7a1.4,1.4,0,0,0,.2-1.4c-.6-1.6-4.2-2.9-14.4-6-4.2-1.3-8.5-2.6-11.9-3.9-4.3-1.6-5.4-2.6-5.6-2.9.4-.4,2.1-1,7.8-.1,4.3.6,9.6,1.9,14.2,2.9,9.5,2.2,13,2.9,14.3,1.9,2.7-2,.4-7.4-1.8-12.6-.6-1.3-1.1-2.5-1.5-3.5-1.2-3.2-.1-5.9.8-6.4.1-.1.3-.1.6.2a34.718,34.718,0,0,1,2.3,2.8c3.6,4.5,10.3,12.9,16,17.2,9.2,7.1,24.8,14,42.8,14,2.1,0,4.2-.1,6.4-.3h0c10.5-1.8,17.5-5.1,20.9-9.9a14.27,14.27,0,0,0,2.2-11c-1.2-6.8-4.6-8.9-4.7-9a1.12,1.12,0,0,0-1.5.3c-.1.1-5.8,6.9-12.1,8.9-10.3,3.1-21.5-.4-21.7-.4a1.149,1.149,0,0,0-1.4,1.4l5,17.6c-14.5-1.5-26.9-7.3-34.6-13.2-5.5-4.2-12.1-12.4-15.6-16.8-1-1.3-1.9-2.3-2.4-2.9a2.52,2.52,0,0,0-3.4-.6c-2,1.2-3.2,5.1-1.8,9.1.4,1.1.9,2.4,1.5,3.7,1.2,2.9,3.8,8.8,2.6,9.9-1.2.4-7.5-1.1-12.5-2.2-13-3-21.7-4.8-24.3-2.1a1.962,1.962,0,0,0-.5,1.9c.7,2.6,6.6,4.7,19.1,8.5,4.5,1.4,10.4,3.2,12.4,4.3-2.1.6-8.4-.1-12.7-.6-9.8-1.1-20-2.3-20.9,2.9-.2,1.3.9,2.7,7.4,4.8.2.1.4.1.6.2-2.2.2-4,.8-4.6,2.1a2.285,2.285,0,0,0,.7,2.8c2.1,2,9.9,4.8,16.8,6.1a72.614,72.614,0,0,1,9,2.3c-1.1-.1-2.4-.2-3.5-.3-6.8-.7-14.4-1.6-16,2.1a1.946,1.946,0,0,0,0,1.5c.6,1.4,3.1,2.5,3.9,2.8,6.5,2.3,14.7,2.6,23.3,2.9,9,.3,18.3.6,26.5,3.2,2.8.9,6.8,2.5,11.4,4.4,13.2,5.5,32.8,13.6,48.9,13.6a17.706,17.706,0,0,0,2.3-.1c8.9-.4,17.1-4.7,23.8-12.4C637.8,515.7,642.3,502.3,641.2,490.1Z"/><path class="a" d="M514.5,318.2s23.3,1.9,44,15.1,30.6,22.6,42.6,43.9a107.5,107.5,0,0,1,14,53.8c-.2,12.5-9.7,35.3-24.5,37.9-14.7,2.6-22,1.1-33.8-5.6S532.5,437,532.5,437l-21.8-33s-8.6-10.6-13.6-12.7-23.9-16.1-23.9-16.1,2.8-3.7,9.9-1.9a177.434,177.434,0,0,1,17.2,5.8l7.3-37.1,1.9-6,3.9-9,2.1,2.1Z"/><path class="b" d="M514.8,324.5s34.9,4.5,63.4,31.6c29.6,28.1,36.8,74.8,25.2,102.7,0,0,17.8-14.6,10.2-48.8a120.434,120.434,0,0,0-44.8-70c-16.8-12.5-43.9-21.7-54.3-21.8C515.2,319.1,514.8,324.5,514.8,324.5Z"/><path class="a" d="M465,369.8a.749.749,0,0,1,.5-.1h.2l39.2,9,8.5-37.5-46-10.5-9.8,43Z"/><path class="j" d="M515.7,339.8a1.275,1.275,0,0,0-.7-.5l-48-11a1.065,1.065,0,0,0-1.3.8l-10.6,46.3a1.19,1.19,0,0,0,.4,1.1,1.048,1.048,0,0,0,1.2.1l9-4.8,39.9,9.1h.2a.974.974,0,0,0,1-.8l9-39.6A.616.616,0,0,0,515.7,339.8Zm-4.8,13-51.6,14.4,8.3-36.5,46,10.5Z"/><path class="a" d="M500.3,379.2s-14.6-5.7-16.7-6.2-9.1.7-9.6,2.8l17.4,11.4,4.1,1.8,3.3-4.9Z"/><path class="a" d="M513.4,327.1s-.4-2.6-5.6-.1-2.1,1-2.1,1-6.3-4.8-9.4-2.4-3.7,4-3.7,4-6.4-1.4-7.8-.7a17.321,17.321,0,0,0-3.4,2.8s-5.2-4.6-8.6-3.2-8.8,8.1-10.2,10.5c-1.4,2.3-3,3.8-2.1,4.5s14.3-8.4,14.3-8.4l4.2.1s-6.5,9-6,11.1,2.2,2.2,3,1.8,13.9-11.5,13.9-11.5-4,12.1-3.7,14.2,1.5,4.5,3.3,3.8,7.4-10.9,7.4-10.9-.8,7.2,1.9,7c2.8-.1,10.2-13.6,10.2-13.6l.6-1Z"/><path class="j" d="M611.3,398.4c-7-22.3-18.9-40.6-35.4-54.5-12.7-10.7-28.2-18.7-46-23.9-15.3-4.5-38.8-5.9-55.8-6.2-15.7-.4-28.9.1-32.5.2l-5-24.8a1.118,1.118,0,1,0-2.2.4l5.2,25.8a1.2,1.2,0,0,0,1.2.9c.1,0,15-.6,33.3-.2a314.591,314.591,0,0,1,39.3,2.9q0,1.8.3,6.9a3.733,3.733,0,0,0-3.1-1.2,8.632,8.632,0,0,0-5,2.4c-1.5-1.2-6.7-4.8-10.8-1.5a14.274,14.274,0,0,0-2.7,3.1c-1.6-.7-4.9-1.8-7.2-1.2a10.192,10.192,0,0,0-3.6,3.1c-1.5-1.4-5-4.1-8.7-3.3-3.6.8-12.1,9.3-13.4,14.3a2.739,2.739,0,0,0,.6,2.9,2.111,2.111,0,0,0,1.6.6c1.7,0,4.2-1.3,7.8-4,3.2-2.4,6.2-5,6.3-5.1a1.134,1.134,0,1,0-1.5-1.7s-2.8,2.5-5.8,4.7c-5.2,3.9-6.7,3.8-6.9,3.7a5.552,5.552,0,0,1,.7-2.2c2.3-4.3,8.5-10.6,11.1-11.1,2.8-.6,5.6,1.7,6.8,2.8a44.408,44.408,0,0,0-2.9,4c-5,7.4-5.4,10.1-5.3,10.9a2.609,2.609,0,0,0,2.5,2.7c1.4,0,3.3-1.1,6.3-3.6,2-1.7,4.7-4,6.6-5.7-.5,1.6-1,3.2-1.3,4.6-1.3,4.8-1.2,8.1.3,9.7a3.168,3.168,0,0,0,2.3.9,3.4,3.4,0,0,0,1-.1c1.9-.5,4-3.5,5.8-6.7a4.115,4.115,0,0,0,1,2.3,3.174,3.174,0,0,0,2.8,1.2c.7-.1,1.8-.2,7-8.8,2.4-4,4.7-8.1,4.7-8.1a1.1,1.1,0,0,0-1.9-1.1c-3.8,7-8.7,14.9-10.1,15.8a.755.755,0,0,1-.7-.4c-.6-.7-.9-2.7.1-5.7,3.7-10.9,9.2-17,12.5-17.2h.1c2.5,0,4.9,6.3,7.8,13.6,3,7.7,6.8,17.2,12.7,26.2,3.9,5.8,9.5,13.6,15.7,21.5a.758.758,0,0,0,.2.4l.6.7c4.3,5.4,8.8,10.8,13.2,15.8,12,13.4,20.3,20,25.3,20a3.645,3.645,0,0,0,2.1-.5c.3-.1,6.2-2.5,3.5-13.2-2.6-10.4-13.7-13.5-24.8-15.8-10.5-2.2-16.4-6.9-17.9-8.2-6.3-8.1-12.1-16-16-21.9-5.8-8.7-9.5-18.2-12.5-25.8a86.878,86.878,0,0,0-4.6-10.5c-.2-4.7-.4-8.1-.4-9.8a109.672,109.672,0,0,1,13.6,2.9c17.5,5.1,32.7,13,45.2,23.5,16.1,13.6,27.8,31.5,34.6,53.4,8.6,27.5,3.8,44.4-1.8,53.7-6,10.1-14.9,15-21.2,16.2a38.116,38.116,0,0,1-23.9-3.6c-10.1-5-19.6-14.4-28.1-27.8-19.7-30.9-26.3-40.9-34.7-46.4-6.3-4.1-20.6-13-24.6-15.4,4.9-5.3,19.4,1.3,24.9,4.4a1.1,1.1,0,0,0,1.1-1.9c-.9-.5-22.5-13-28.6-2.8a1.129,1.129,0,0,0,.4,1.5c.2.1,18.3,11.3,25.6,16.1,8,5.2,14.6,15.1,34,45.7,8.8,13.8,18.6,23.4,29,28.7a41.857,41.857,0,0,0,18.3,4.5,40.2,40.2,0,0,0,6.9-.6c6.8-1.3,16.3-6.5,22.7-17.2C619.8,436.4,616.2,414.1,611.3,398.4Zm-132.1-54c-3.9,3.2-4.9,3.1-5,3.1a1.374,1.374,0,0,1-.2-.6c-.1-.7,1.2-3.8,4.9-9.3,3.4-5.1,6-7.8,6.8-8,1.4-.4,3.9.4,5.5,1a41,41,0,0,0-2.4,5.6.1.1,0,0,0-.1.1C488.5,336.3,482.8,341.4,479.2,344.4Zm17.8-3.7a1.38,1.38,0,0,0-.3.4c-2.5,5.6-6.2,11.9-7.8,12.3-.8.2-1.1-.1-1.2-.2-.7-.7-1-3.1.2-7.5,1-3.8,4.2-15.3,8.2-18.4,2.7-2.1,6.4.3,7.8,1.4A44.481,44.481,0,0,0,497,340.7Z"/><path class="j" d="M456.1,381.6a.67.67,0,0,0-.7-.4.842.842,0,0,0-.7.4c-.5,1-5,9.8-2.6,13.4a3.932,3.932,0,0,0,3.4,1.6h.3a3.713,3.713,0,0,0,3.3-1.9C461.2,391,456.6,382.6,456.1,381.6Z"/><path class="a" d="M442.8,227.6l6,36.2s-13.8,14.4-14.7,14.6-33.4-3.9-33.8-4.9-9-9.9-9-9.9l2.4-26.7s11.2.4,20.7-3,14.6-6,21.7-13.1C436.1,220.9,440.4,226,442.8,227.6Z"/><path class="a" d="M392.8,245.2s-6.5-3.9-9.1,1.1-.2,13.1,8.2,21.1C391.7,266.1,392.8,245.2,392.8,245.2Z"/><path class="j" d="M391.8,268.5a1.136,1.136,0,0,1-.8-.3c-8.3-7.9-11.5-16.5-8.4-22.4a5.327,5.327,0,0,1,3.5-2.9c3.3-.9,7.1,1.3,7.2,1.4a1.1,1.1,0,0,1-1.1,1.9s-3.1-1.8-5.5-1.2a3.7,3.7,0,0,0-2.1,1.8c-2.5,4.9.6,12.7,8,19.8a1.215,1.215,0,0,1,0,1.6A1.136,1.136,0,0,1,391.8,268.5Z"/><path class="a" d="M445.9,244.5s4.9-4.3,8.4-.2,1.5,12.9-5.4,18.5Z"/><path class="j" d="M448.9,265.1a1.136,1.136,0,0,1-.8-.3,1.215,1.215,0,0,1,0-1.6c2.5-2.6,8.5-10.3,7-15.1a5.624,5.624,0,0,0-2.9-3.8c-2.4-.9-5.3.8-5.3.8a1.1,1.1,0,1,1-1.1-1.9c.1-.1,3.8-2.3,7.2-1,2,.7,3.4,2.5,4.3,5.2,2.2,7.1-7.1,16.9-7.5,17.4A1.613,1.613,0,0,1,448.9,265.1Z"/><ellipse class="b" cx="8.5" cy="4.5" rx="8.5" ry="4.5" transform="translate(425.9 246.1)"/><path class="j" d="M391.6,265h0a1.073,1.073,0,0,1-1.1-1.2l2-29.9a1.1,1.1,0,0,1,2.2.2l-2,29.9A1.1,1.1,0,0,1,391.6,265Z"/><path class="j" d="M448.1,260a1.172,1.172,0,0,1-1.1-.9l-6-31.6a1.118,1.118,0,1,1,2.2-.4l6,31.6a1.13,1.13,0,0,1-.9,1.3Z"/><path class="j" d="M449,258.1c-2.7-2.7-7-3.2-12-1.4a31.4,31.4,0,0,0-6.7,3.8c-3.1,2.1-6.5,5-11.6,4.8-4.5-.1-7.4-2-11.3-2.9-6.9-1.6-13-3-16.6.9-1.8,1.9-1.6,3.7-1.5,6.8.1,4.9,1.5,11,5.8,15,7.8,7.3,13.5,9.4,25.4,9.4,14.2,0,22.8-6.4,28.1-20.2C451.2,267.5,452.2,261.2,449,258.1Z"/><path class="j" d="M416.2,263.7a7.433,7.433,0,0,1-5.3-1.9,3.346,3.346,0,0,1-.8-3.4c.7-2.1,2.4-2.5,3.7-2.8a4.19,4.19,0,0,0,1.9-.8c1.8-1.9-.2-7.3-1.1-9.1a1.136,1.136,0,0,1,.5-1.5,1.167,1.167,0,0,1,1.5.5c.4.8,3.9,8.2.7,11.6a7.064,7.064,0,0,1-3,1.5c-1.2.3-1.8.5-2.1,1.3a1.558,1.558,0,0,0,.3,1.2c.9.9,3.1,1.6,6.5.7a1.14,1.14,0,1,1,.6,2.2A11.181,11.181,0,0,1,416.2,263.7Z"/><ellipse class="j" cx="6.4" cy="2.3" rx="6.4" ry="2.3" transform="matrix(0.978, -0.209, 0.209, 0.978, 397.733, 240.386)"/><ellipse class="j" cx="2.3" cy="6.4" rx="2.3" ry="6.4" transform="translate(427.331 241.494) rotate(-75.594)"/><path class="j" d="M434.4,245c-5.4,0-9.7,2.5-9.7,5.6,0,3.2,4.3,5.6,9.7,5.6s9.7-2.5,9.7-5.6S439.9,245,434.4,245Zm0,9a17.915,17.915,0,0,1-2.4-.2c1.6-.8,2.5-1.9,2.5-3.2s-1-2.4-2.5-3.2a16.591,16.591,0,0,1,2.4-.2c4.4,0,7.4,1.8,7.4,3.4C441.9,252.2,438.8,254,434.4,254Z"/><ellipse class="b" cx="8.5" cy="4.5" rx="8.5" ry="4.5" transform="translate(396.7 246.1)"/><path class="j" d="M405.2,245c-5.4,0-9.7,2.5-9.7,5.6,0,3.2,4.3,5.6,9.7,5.6s9.7-2.5,9.7-5.6S410.7,245,405.2,245Zm0,9a17.915,17.915,0,0,1-2.4-.2c1.6-.8,2.5-1.9,2.5-3.2s-1-2.4-2.5-3.2a16.591,16.591,0,0,1,2.4-.2c4.4,0,7.4,1.8,7.4,3.4C412.7,252.2,409.6,254,405.2,254Z"/><path class="b" d="M413.5,276l16.4-5.6s1.2,6.5-3.4,8.8C420.1,282.5,413.5,276,413.5,276Z"/><path class="a" d="M391.8,230.4a1.028,1.028,0,0,1-1.1-1,1.12,1.12,0,0,1,1-1.2c27-2.2,35.9-16.9,35.9-17.1a1.1,1.1,0,0,1,1.9,1.1c-.4.6-9.6,16-37.7,18.2Z"/><path class="a" d="M405.5,219.2a1.09,1.09,0,0,1-1.1-1,1.13,1.13,0,0,1,.9-1.3c7.4-1.1,11.5-3.5,13.7-5.4a8.29,8.29,0,0,0,2.8-3.8,1.107,1.107,0,0,1,2.1.7c-.1.3-2.6,8.4-18.3,10.8Z"/><path class="a" d="M420.5,294.3c-11.9,0-17.6-2.1-25.4-9.4-6.2-5.7-7.5-16.1-6.7-23.8a1.1,1.1,0,1,1,2.2.2c-.7,7.2.4,16.8,6,21.9,6.6,6.2,11.4,8.8,23.9,8.8,13.2,0,22.4-6.5,27.3-19.3,1.6-4.1,1.8-12.7,1.2-15.1a1.079,1.079,0,0,1,2.1-.5c.7,3.1.4,12-1.3,16.5C444.6,287.3,434.7,294.3,420.5,294.3Z"/></g></svg>